<?xml version="1.0" encoding="UTF-8"?>
<svg version="1.1" xmlns="http://www.w3.org/2000/svg" width="512" height="512">
<path d="M0 0 C1.60706896 -0.00935994 1.60706896 -0.00935994 3.24660397 -0.01890898 C6.81314976 -0.03478025 10.37900656 -0.02225717 13.94555664 -0.00964355 C16.51205848 -0.01506725 19.0785572 -0.02219129 21.64505005 -0.03088379 C27.87819836 -0.04861778 34.11115339 -0.04485203 40.34430909 -0.03323323 C45.41265075 -0.02417891 50.48093845 -0.02298351 55.54928589 -0.02732849 C56.27218841 -0.02794142 56.99509092 -0.02855436 57.73989958 -0.02918586 C59.20872094 -0.03046484 60.67754229 -0.03176169 62.14636362 -0.03307623 C75.90130028 -0.04446702 89.65613011 -0.03139195 103.41104925 -0.00987476 C115.19897238 0.00799488 126.98673791 0.00489035 138.7746582 -0.0135498 C152.48226418 -0.03498311 166.18977665 -0.04336852 179.89739704 -0.03110075 C181.36064464 -0.02982663 182.82389226 -0.02856914 184.28713989 -0.02732849 C185.00697978 -0.02671139 185.72681968 -0.02609429 186.4684729 -0.02545848 C191.52741593 -0.02201295 196.58629936 -0.02781669 201.64523315 -0.0372467 C208.46122964 -0.04967335 215.27692436 -0.04075479 222.09289169 -0.01766968 C224.59138369 -0.01238971 227.08990077 -0.0138841 229.58838272 -0.02272034 C233.00473226 -0.03368694 236.42013612 -0.01989727 239.83642578 0 C241.31164404 -0.01338433 241.31164404 -0.01338433 242.8166647 -0.02703905 C252.88683369 0.08634891 260.67455653 3.36260668 267.94165039 10.30871582 C275.97648773 19.24866329 277.24217062 29.84232782 277.14526367 41.45568848 C277.14555573 42.39349152 277.14584778 43.33129456 277.14614868 44.29751587 C277.14476882 47.35994109 277.12927158 50.42211499 277.11352539 53.48449707 C277.10979048 55.62254707 277.10694577 57.76059879 277.10494995 59.89865112 C277.09735117 65.49799409 277.07773526 71.09723161 277.05554199 76.6965332 C277.0350023 82.4214129 277.02593093 88.14630981 277.01586914 93.87121582 C276.99448556 105.08350147 276.9603954 116.29570922 276.91821289 127.50793457 C277.86293457 127.48900146 278.80765625 127.47006836 279.78100586 127.45056152 C284.49239156 127.53672305 287.28766181 129.66865744 290.91821289 132.50793457 C294.72689034 136.61729708 297.15767386 140.24987229 297.19236755 145.92132568 C297.20234268 146.79874924 297.21231781 147.67617279 297.22259521 148.58018494 C297.22325989 149.53506302 297.22392456 150.4899411 297.22460938 151.47375488 C297.23293289 152.48561356 297.24125641 153.49747223 297.24983215 154.53999329 C297.27394823 157.88872109 297.28270693 161.2372541 297.28930664 164.58605957 C297.29827272 166.91530414 297.30739456 169.24454812 297.31666565 171.5737915 C297.33316327 176.45956827 297.34085701 181.34527646 297.34375 186.2310791 C297.34913022 192.48340673 297.38679296 198.73508719 297.43249416 204.98723221 C297.46227917 209.8000319 297.46947391 214.61267616 297.47047615 219.42556 C297.47467662 221.72999786 297.48710383 224.03443626 297.5079937 226.33878326 C297.5349326 229.56784709 297.53007387 232.79541626 297.51757812 236.02453613 C297.53982956 237.44470787 297.53982956 237.44470787 297.56253052 238.89356995 C297.47399568 246.95215821 294.65993512 251.6415886 289.16821289 257.38293457 C286.17456189 259.34032177 284.60110394 259.95738747 281.21508789 260.64074707 C280.0061084 260.89042236 280.0061084 260.89042236 278.77270508 261.1451416 C278.16072266 261.26486328 277.54874023 261.38458496 276.91821289 261.50793457 C276.92097827 262.63069416 276.92374365 263.75345375 276.92659283 264.91023636 C276.99324748 292.25330729 277.04251676 319.59636765 277.07364941 346.93950272 C277.08910581 360.16253805 277.11017195 373.38551966 277.14453125 386.60852051 C277.17447107 398.13622154 277.19379681 409.66388366 277.20047837 421.1916225 C277.20438284 427.29315431 277.21353349 433.39457479 277.23540306 439.49607086 C277.25584052 445.24486345 277.262032 450.99349936 277.25753593 456.74232483 C277.25835789 458.84651797 277.26428003 460.95071663 277.27582932 463.05487823 C277.35648017 478.51337149 277.29889678 492.23056766 266.32446289 504.25402832 C258.79258001 511.37734208 249.88457842 513.10703382 239.83642578 513.01586914 C238.76504647 513.0221091 237.69366716 513.02834907 236.58982182 513.03477812 C233.02327602 513.0506494 229.45741922 513.03812631 225.89086914 513.0255127 C223.3243673 513.03093639 220.75786858 513.03806043 218.19137573 513.04675293 C211.95822742 513.06448692 205.72527239 513.06072117 199.49211669 513.04910237 C194.42377503 513.04004805 189.35548733 513.03885265 184.28713989 513.04319763 C183.56423738 513.04381056 182.84133486 513.0444235 182.09652621 513.045055 C180.62770484 513.04633398 179.1588835 513.04763083 177.69006217 513.04894537 C163.9351255 513.06033616 150.18029568 513.04726109 136.42537653 513.0257439 C124.6374534 513.00787426 112.84968787 513.01097879 101.06176758 513.02941895 C87.3541616 513.05085225 73.64664914 513.05923766 59.93902874 513.04696989 C58.47578114 513.04569577 57.01253352 513.04443829 55.54928589 513.04319763 C54.829446 513.04258053 54.10960611 513.04196343 53.36795288 513.04132763 C48.30900986 513.03788209 43.25012642 513.04368583 38.19119263 513.05311584 C31.37519615 513.06554249 24.55950143 513.05662394 17.74353409 513.03353882 C15.24504209 513.02825885 12.74652501 513.02975324 10.24804306 513.03858948 C6.83169352 513.04955608 3.41628966 513.03576641 0 513.01586914 C-0.98347884 513.02479203 -1.96695768 513.03371491 -2.98023891 513.04290819 C-13.05040791 512.92952024 -20.83813075 509.65326247 -28.10522461 502.70715332 C-36.02703805 493.89296168 -37.40308834 483.42074432 -37.32229614 471.95333862 C-37.32400499 471.04641286 -37.32571384 470.13948709 -37.32747447 469.20507872 C-37.3307431 466.19575896 -37.31980933 463.18666705 -37.30883789 460.17736816 C-37.30827321 458.00843308 -37.30859145 455.83949761 -37.3097229 453.67056274 C-37.31029518 447.80353967 -37.29856095 441.93659887 -37.28457499 436.06959486 C-37.27204693 429.93036285 -37.27089549 423.79112881 -37.26852417 417.65188599 C-37.2623155 406.03576361 -37.24591297 394.41967901 -37.22582519 382.80357325 C-37.20344711 369.57506143 -37.19246796 356.34654777 -37.18243432 343.11802173 C-37.16154621 315.91463842 -37.12638215 288.71128862 -37.08178711 261.50793457 C-37.70219879 261.38114319 -38.32261047 261.25435181 -38.96182251 261.12371826 C-39.77436493 260.95176941 -40.58690735 260.77982056 -41.42407227 260.60266113 C-42.23010895 260.43461975 -43.03614563 260.26657837 -43.86660767 260.09344482 C-46.66003758 259.35509297 -48.35522276 258.22648852 -50.45678711 256.25793457 C-51.08327148 255.69590332 -51.70975586 255.13387207 -52.35522461 254.55480957 C-57.23237807 248.77284483 -57.52408552 243.55110362 -57.50170898 236.31506348 C-57.51017853 235.30291275 -57.51864807 234.29076202 -57.52737427 233.24794006 C-57.55072747 229.90999706 -57.55176676 226.57251551 -57.55053711 223.23449707 C-57.5576399 220.9081097 -57.56533907 218.58172409 -57.5736084 216.25534058 C-57.58704955 211.38148122 -57.58862364 206.50778383 -57.58276367 201.63391113 C-57.57686944 195.39730176 -57.60745045 189.16147134 -57.64788055 182.92501259 C-57.67376793 178.12077671 -57.67663395 173.3167281 -57.67298889 168.5124321 C-57.67467929 166.21358661 -57.68431397 163.9147324 -57.70213318 161.61595535 C-57.72434138 158.39664282 -57.71461011 155.17890324 -57.69702148 151.95959473 C-57.71028473 151.01595566 -57.72354797 150.07231659 -57.73721313 149.1000824 C-57.6560992 142.68978577 -56.16113672 138.48846565 -52.08178711 133.50793457 C-47.09139882 128.88269664 -43.8388528 127.39761513 -37.08178711 127.50793457 C-37.08844894 126.3318866 -37.09511078 125.15583862 -37.10197449 123.94415283 C-37.16297728 112.8225149 -37.20785147 101.70091124 -37.23722363 90.57914352 C-37.25283212 84.86230202 -37.27398196 79.14559636 -37.30810547 73.42883301 C-37.34087121 67.90451993 -37.35867629 62.38033695 -37.36641884 56.85593414 C-37.37193157 54.7557699 -37.38269603 52.65561221 -37.39897728 50.55550385 C-37.51550197 34.89202443 -37.6181289 20.95583844 -26.48803711 8.76184082 C-18.95615423 1.63852706 -10.04815263 -0.09116468 0 0 Z " fill="#CB97E7" transform="translate(136.081787109375,-0.5079345703125)"/>
<path d="M0 0 C1.01608337 -0.02738754 2.03216675 -0.05477509 3.07904053 -0.08299255 C4.76586693 -0.12001785 4.76586693 -0.12001785 6.48677063 -0.15779114 C8.25279129 -0.20138008 8.25279129 -0.20138008 10.05448914 -0.24584961 C20.95929639 -0.50057337 31.86572414 -0.65473689 42.77278423 -0.7733717 C50.10116172 -0.85492562 57.42575495 -0.9700891 64.75190735 -1.17146301 C71.14695265 -1.34722143 77.53935274 -1.45811232 83.93677551 -1.49288446 C87.31951636 -1.51335547 90.69512935 -1.56408869 94.07564354 -1.6923275 C114.57004736 -2.37956972 114.57004736 -2.37956972 120.77550125 1.97571945 C125.03154549 6.12101302 128.10848645 10.81559319 130.99167824 15.98097801 C133.00467453 19.44720131 135.45394459 22.53568631 137.92939758 25.67887878 C138.68478821 26.68821472 139.44017883 27.69755066 140.21846008 28.73747253 C142.79458473 31.82978695 144.6533306 33.91443483 148.67158508 34.71012878 C152.92760998 34.76316336 155.61444983 34.63563464 159.36689758 32.49137878 C161.97290472 29.88537165 164.14310233 26.9242102 166.36689758 23.99137878 C167.49990044 22.50558571 167.49990044 22.50558571 168.65579224 20.98977661 C170.56832215 18.39731333 172.12646496 15.76768107 173.63208008 12.92181396 C176.97560977 7.0804297 180.49363571 1.51973564 187.13060379 -0.70669937 C194.92199605 -2.06363689 202.78728502 -1.76988031 210.66172624 -1.48231816 C214.10174154 -1.3750235 217.54209028 -1.36598323 220.98352051 -1.34588623 C227.48074532 -1.29333245 233.97302643 -1.15426497 240.4680869 -0.98294491 C247.87020472 -0.79199761 255.27257668 -0.69923411 262.67654955 -0.61412251 C277.88857315 -0.43708435 293.09598791 -0.13867365 308.30439758 0.24137878 C308.3745366 28.84893338 308.42740978 57.45647504 308.4598341 86.06409836 C308.47529068 99.34767469 308.49635713 112.63117656 308.53071594 125.91471863 C308.56065523 137.49515738 308.57998137 149.07555738 308.58666307 160.65603375 C308.59056762 166.78551102 308.59971885 172.91487747 308.62158775 179.04431915 C308.64202438 184.81937638 308.64821686 190.59427764 308.64372063 196.3693676 C308.64454262 198.48323605 308.65046527 200.59710998 308.66201401 202.71094704 C308.74242581 218.19514047 308.70463878 231.94258512 297.71064758 243.98747253 C290.17876471 251.11078629 281.27076311 252.84047803 271.22261047 252.74931335 C269.61554151 252.7586733 269.61554151 252.7586733 267.97600651 252.76822233 C264.40946071 252.78409361 260.84360391 252.77157052 257.27705383 252.75895691 C254.710552 252.7643806 252.14405327 252.77150464 249.57756042 252.78019714 C243.34441212 252.79793114 237.11145709 252.79416538 230.87830138 252.78254658 C225.80995973 252.77349226 220.74167202 252.77229687 215.67332458 252.77664185 C214.95042207 252.77725478 214.22751955 252.77786771 213.4827109 252.77849922 C212.01388954 252.77977819 210.54506819 252.78107504 209.07624686 252.78238958 C195.32131019 252.79378037 181.56648037 252.7807053 167.81156123 252.75918812 C156.0236381 252.74131847 144.23587256 252.744423 132.44795227 252.76286316 C118.74034629 252.78429646 105.03283383 252.79268188 91.32521343 252.7804141 C89.86196583 252.77913998 88.39871821 252.7778825 86.93547058 252.77664185 C86.21563069 252.77602474 85.4957908 252.77540764 84.75413758 252.77477184 C79.69519455 252.77132631 74.63631112 252.77713004 69.57737732 252.78656006 C62.76138084 252.7989867 55.94568612 252.79006815 49.12971878 252.76698303 C46.63122678 252.76170306 44.1327097 252.76319745 41.63422775 252.77203369 C38.21787821 252.7830003 34.80247435 252.76921062 31.38618469 252.74931335 C30.40270585 252.75823624 29.41922701 252.76715913 28.40594578 252.77635241 C18.33577678 252.66296445 10.54805394 249.38670668 3.28096008 242.44059753 C-4.63864265 233.62886564 -6.01421152 223.15765395 -5.94284058 211.69351196 C-5.94525499 210.78729176 -5.94766941 209.88107156 -5.95015699 208.94739014 C-5.95574899 205.94041174 -5.94716538 202.93365005 -5.93852234 199.92668152 C-5.93959628 197.75936831 -5.94153661 195.59205539 -5.9442749 193.42474365 C-5.94910595 187.56179071 -5.9414912 181.69891433 -5.93132186 175.83597064 C-5.92252132 169.69987246 -5.92429913 163.56377654 -5.92468262 157.42767334 C-5.92374744 147.13436098 -5.91507975 136.84107819 -5.90141296 126.54777527 C-5.88565144 114.63242999 -5.88041622 102.71711699 -5.88114852 90.80176204 C-5.88175769 79.34347423 -5.87666483 67.88519696 -5.8683567 56.42691231 C-5.86481849 51.54612712 -5.86299271 46.66534566 -5.862463 41.78455925 C-5.86146234 36.04965079 -5.85538858 30.31476967 -5.84529686 24.57987022 C-5.84236405 22.46944598 -5.84114806 20.35901858 -5.8417244 18.24859238 C-5.84221136 15.38116297 -5.83659656 12.51381143 -5.82931519 9.64639282 C-5.83086379 8.80011824 -5.83241239 7.95384365 -5.83400792 7.08192438 C-5.80466816 0.14680635 -5.80466816 0.14680635 0 0 Z " fill="#D7EBFD" transform="translate(104.69560241699219,259.7586212158203)"/>
<path d="M0 0 C1.60706896 -0.00935994 1.60706896 -0.00935994 3.24660397 -0.01890898 C6.81314976 -0.03478025 10.37900656 -0.02225717 13.94555664 -0.00964355 C16.51205848 -0.01506725 19.0785572 -0.02219129 21.64505005 -0.03088379 C27.87819836 -0.04861778 34.11115339 -0.04485203 40.34430909 -0.03323323 C45.41265075 -0.02417891 50.48093845 -0.02298351 55.54928589 -0.02732849 C56.27218841 -0.02794142 56.99509092 -0.02855436 57.73989958 -0.02918586 C59.20872094 -0.03046484 60.67754229 -0.03176169 62.14636362 -0.03307623 C75.90130028 -0.04446702 89.65613011 -0.03139195 103.41104925 -0.00987476 C115.19897238 0.00799488 126.98673791 0.00489035 138.7746582 -0.0135498 C152.48226418 -0.03498311 166.18977665 -0.04336852 179.89739704 -0.03110075 C181.36064464 -0.02982663 182.82389226 -0.02856914 184.28713989 -0.02732849 C185.00697978 -0.02671139 185.72681968 -0.02609429 186.4684729 -0.02545848 C191.52741593 -0.02201295 196.58629936 -0.02781669 201.64523315 -0.0372467 C208.46122964 -0.04967335 215.27692436 -0.04075479 222.09289169 -0.01766968 C224.59138369 -0.01238971 227.08990077 -0.0138841 229.58838272 -0.02272034 C233.00473226 -0.03368694 236.42013612 -0.01989727 239.83642578 0 C241.31164404 -0.01338433 241.31164404 -0.01338433 242.8166647 -0.02703905 C252.88683369 0.08634891 260.67455653 3.36260668 267.94165039 10.30871582 C291.83612837 36.89486424 276.91821289 121.62984285 276.91821289 127.50793457 C173.29821289 127.50793457 69.67821289 127.50793457 -37.08178711 127.50793457 C-37.08178711 20.36822869 -37.08178711 20.36822869 -26.48803711 8.76184082 C-18.95615423 1.63852706 -10.04815263 -0.09116468 0 0 Z " fill="#D7EBFD" transform="translate(136.081787109375,-0.5079345703125)"/>
<path d="M0 0 C0.94148162 -0.00297112 1.88296323 -0.00594224 2.85297459 -0.0090034 C6.02741407 -0.0177182 9.20181596 -0.01920099 12.37626648 -0.02069092 C14.64428285 -0.02531712 16.91229844 -0.03034151 19.18031311 -0.03573608 C25.35595299 -0.04888106 31.53158198 -0.05530911 37.70723367 -0.05974674 C41.56235352 -0.06267406 45.41747038 -0.06677821 49.27258873 -0.07125092 C59.94327996 -0.08336282 70.61396754 -0.09374387 81.28466511 -0.09712601 C81.96785525 -0.09734557 82.6510454 -0.09756514 83.35493828 -0.09779136 C84.03977777 -0.09800964 84.72461726 -0.09822791 85.43020946 -0.09845281 C86.81799018 -0.09889627 88.20577091 -0.09934284 89.59355164 -0.09979248 C90.62613582 -0.10012463 90.62613582 -0.10012463 91.67958029 -0.10046348 C102.8340969 -0.10441153 113.98854819 -0.12186509 125.14303956 -0.145152 C136.59128926 -0.16885953 148.0394915 -0.18106955 159.48776883 -0.18249393 C165.91711928 -0.18354381 172.34637763 -0.18949063 178.77570534 -0.20731354 C184.8224521 -0.2237492 190.8690371 -0.22597163 196.91579819 -0.21717453 C199.1374206 -0.21640174 201.35905155 -0.22077855 203.58065224 -0.23063278 C206.60930127 -0.2432808 209.63737117 -0.23751427 212.66601562 -0.22705078 C213.54889623 -0.23510719 214.43177684 -0.24316359 215.34141141 -0.25146413 C221.11250618 -0.20470822 224.43798467 0.80065935 228.80888367 4.75616455 C230.71409644 8.49612595 230.47125074 12.14942435 230.45707703 16.28887939 C230.46231888 17.1790274 230.46756073 18.06917542 230.47296143 18.98629761 C230.47937788 20.86742105 230.47804949 22.74858463 230.4695282 24.62969971 C230.46103316 27.49859678 230.4897597 30.36549223 230.52153015 33.23419189 C230.52314275 35.06492047 230.52256351 36.89565255 230.51957703 38.72637939 C230.530811 39.57968842 230.54204498 40.43299744 230.55361938 41.31216431 C230.49094615 46.70690688 229.71078437 49.9253403 226.02348328 54.14044189 C223.24295018 55.82675265 221.1749539 56.39144999 217.94043922 56.40050411 C217.13151085 56.4075697 216.32258247 56.41463529 215.48914111 56.42191499 C214.60607613 56.41949991 213.72301116 56.41708483 212.81318665 56.41459656 C211.87070175 56.41983324 210.92821685 56.42506992 209.9571718 56.43046528 C206.79124471 56.44549674 203.62547879 56.44617113 200.45951843 56.44683838 C198.19282762 56.45445769 195.92613939 56.46288479 193.65945435 56.47206116 C187.4962568 56.4940343 181.33310887 56.50280875 175.16987658 56.5078876 C171.32109899 56.51152756 167.47233447 56.5177657 163.62356186 56.52488899 C152.96565916 56.54434612 142.30777103 56.56085851 131.64985085 56.56376553 C130.9679825 56.5639531 130.28611416 56.56414067 129.58358314 56.56433392 C128.20130022 56.56470017 126.81901731 56.56506387 125.43673439 56.56542503 C124.40749736 56.56569925 124.40749736 56.56569925 123.35746765 56.565979 C122.67047151 56.56615955 121.98347536 56.5663401 121.27566116 56.56652612 C110.14129024 56.57006856 99.00711263 56.5970963 87.87280877 56.63447689 C76.43916599 56.6725551 65.00566079 56.69148182 53.57194555 56.69222504 C47.15314825 56.69301912 40.73460036 56.7018185 34.31586075 56.7302227 C28.27966131 56.75633634 22.24391927 56.75864573 16.20768929 56.74256706 C13.99131717 56.7407473 11.77491915 56.74749053 9.55860329 56.76338577 C6.53443927 56.78375392 3.5118896 56.77334837 0.48774719 56.75517273 C-0.39085634 56.7683727 -1.26945987 56.78157266 -2.17468774 56.79517263 C-6.3776243 56.73741239 -9.14653183 56.44371722 -12.50553322 53.78952122 C-15.50965482 50.56887794 -16.09179215 48.37671811 -16.16938782 44.13140869 C-16.18545074 43.3301506 -16.20151367 42.52889252 -16.21806335 41.70335388 C-16.26270727 38.04445429 -16.30357174 34.38573199 -16.32661438 30.72662354 C-16.34317086 28.79941734 -16.3704569 26.87227246 -16.40864563 24.94537354 C-16.46353116 22.1598135 -16.48530487 19.37568922 -16.49995422 16.58966064 C-16.5226236 15.73321457 -16.54529297 14.87676849 -16.56864929 13.99436951 C-16.5536756 9.73498942 -16.30041989 6.98979737 -13.56880188 3.61236572 C-9.24430946 -0.51133796 -5.7167624 -0.00556837 0 0 Z " fill="#8AC9FE" transform="translate(148.9765167236328,328.85955810546875)"/>
<path d="M0 0 C9.9 0 19.8 0 30 0 C30.06950212 28.60755749 30.12301219 57.21509459 30.15543652 85.82271957 C30.1708931 99.10629591 30.19195955 112.38979778 30.22631836 125.67333984 C30.25625765 137.25377859 30.27558379 148.83417859 30.28226548 160.41465497 C30.28617004 166.54413224 30.29532127 172.67349868 30.31719017 178.80294037 C30.33762679 184.5779976 30.34381928 190.35289886 30.33932304 196.12798882 C30.34014504 198.24185726 30.34606768 200.35573119 30.35761642 202.46956825 C30.43802823 217.95376169 30.4002412 231.70120634 19.40625 243.74609375 C10.16892914 252.48233353 -0.65354308 252.53180645 -12.625 252.25 C-14.12106968 252.22989241 -15.61716564 252.21164921 -17.11328125 252.1953125 C-20.74274238 252.15168115 -24.37119819 252.08289303 -28 252 C-28 251.67 -28 251.34 -28 251 C-27.38253906 250.86464844 -26.76507813 250.72929687 -26.12890625 250.58984375 C-16.9570235 248.25848238 -10.60073037 244.03770573 -5.5625 235.9375 C-1.72214446 229.18678955 -0.70430876 223.37232917 -0.7215271 215.73660278 C-0.7128385 214.35071404 -0.7128385 214.35071404 -0.70397437 212.93682754 C-0.68699146 209.84603308 -0.68409931 206.7553881 -0.68115234 203.66455078 C-0.671853 201.44694147 -0.66168432 199.22933567 -0.65071106 197.01173401 C-0.62339778 190.99369362 -0.60825764 184.97567667 -0.59528303 178.95759058 C-0.57965837 172.66749031 -0.55286601 166.37743792 -0.5272522 160.08737183 C-0.48577069 149.53059346 -0.45117961 138.9738099 -0.421875 128.41699219 C-0.39167633 117.54490273 -0.35732003 106.67283948 -0.31738281 95.80078125 C-0.31492126 95.13028359 -0.31245972 94.45978592 -0.30992357 93.76897015 C-0.29754872 90.40517767 -0.28509223 87.0413855 -0.27259517 83.67759347 C-0.16925787 55.78509727 -0.08040052 27.89257093 0 0 Z " fill="#C4E2FE" transform="translate(383,260)"/>
<path d="M0 0 C7.71029644 5.42721374 13.04983866 13.47477664 15.49609375 22.5625 C16.77783557 34.46246091 14.84939422 44.48469562 7.30859375 53.9375 C1.14234281 60.3999464 -7.08104397 65.04431538 -16.01953125 65.8984375 C-27.87258656 66.02242343 -36.70911359 63.75075524 -45.50390625 55.5625 C-53.53738091 46.93395315 -56.2401335 37.88162201 -55.88671875 26.18359375 C-54.90744495 16.92046303 -50.4713813 9.18739057 -43.69140625 2.875 C-30.58228689 -7.69687045 -14.57500743 -8.36755497 0 0 Z " fill="#D7EAFD" transform="translate(215.50390625,163.4375)"/>
<path d="M0 0 C4.37412668 -0.09991855 8.74762437 -0.17195484 13.12255859 -0.21972656 C14.60640048 -0.23966981 16.09016555 -0.2668349 17.57373047 -0.30175781 C28.52227354 -0.55276959 38.29256363 -0.08307294 46.8125 7.6875 C54.99889452 15.51230466 57.94329068 24.67392019 58.24050903 35.84707642 C58.24619916 37.54729864 58.24123776 39.24758135 58.22705078 40.94775391 C58.22734283 41.88555695 58.22763489 42.82335999 58.22793579 43.7895813 C58.22655592 46.85200652 58.21105869 49.91418042 58.1953125 52.9765625 C58.19157759 55.1146125 58.18873288 57.25266422 58.18673706 59.39071655 C58.17913828 64.99005952 58.15952237 70.58929703 58.1373291 76.18859863 C58.11678941 81.91347833 58.10771804 87.63837524 58.09765625 93.36328125 C58.07627266 104.57557437 58.04112145 115.78776188 58 127 C48.1 127 38.2 127 28 127 C27.98541748 124.01259766 27.97083496 121.02519531 27.95581055 117.94726562 C27.90541923 108.06452498 27.83881595 98.18194115 27.76428509 88.29935455 C27.71960374 82.30895845 27.68034246 76.31863001 27.65356445 70.328125 C27.62750952 64.54434877 27.58709104 58.76083323 27.53681374 52.97721863 C27.52015994 50.77332304 27.50863643 48.56938238 27.50238609 46.36543274 C27.49272906 43.27264229 27.46464969 40.18051654 27.43237305 37.08789062 C27.43452568 35.72842316 27.43452568 35.72842316 27.4367218 34.3414917 C27.28783955 24.21965136 23.42944818 15.37106702 16.18359375 8.203125 C11.26924955 4.19222589 6.12736423 2.43139246 0 1 C0 0.67 0 0.34 0 0 Z " fill="#C4E2FE" transform="translate(355,0)"/>
<path d="M0 0 C4.49965437 -0.14612187 8.99869238 -0.2343523 13.5 -0.3125 C15.40265625 -0.3753418 15.40265625 -0.3753418 17.34375 -0.43945312 C24.87832556 -0.53755958 30.2702603 -0.18812251 36 5 C39.80867745 9.10936251 42.23946097 12.74193772 42.27415466 18.41339111 C42.28911736 19.72952644 42.28911736 19.72952644 42.30438232 21.07225037 C42.305047 22.02712845 42.30571167 22.98200653 42.30639648 23.96582031 C42.31472 24.97767899 42.32304352 25.98953766 42.33161926 27.03205872 C42.35573534 30.38078652 42.36449404 33.72931953 42.37109375 37.078125 C42.38005983 39.40736957 42.38918167 41.73661355 42.39845276 44.06585693 C42.41495038 48.9516337 42.42264412 53.83734189 42.42553711 58.72314453 C42.43091733 64.97547216 42.46858007 71.22715262 42.51428127 77.47929764 C42.54406628 82.29209733 42.55126102 87.10474159 42.55226326 91.91762543 C42.55646373 94.22206329 42.56889094 96.52650169 42.58978081 98.83084869 C42.6167197 102.05991252 42.61186098 105.28748169 42.59936523 108.51660156 C42.61419952 109.46338272 42.62903381 110.41016388 42.64431763 111.38563538 C42.55578279 119.44422364 39.74172223 124.13365403 34.25 129.875 C26.90312331 134.67872707 18.91980317 134.18637016 10.4375 133.625 C9.42880859 133.56828125 8.42011719 133.5115625 7.38085938 133.453125 C4.91969766 133.31315372 2.45979858 133.16191727 0 133 C1.92617044 131.55069821 3.85053202 130.10607405 5.81640625 128.7109375 C6.39261719 128.27007812 6.96882813 127.82921875 7.5625 127.375 C8.14128906 126.94960937 8.72007812 126.52421875 9.31640625 126.0859375 C14.11985865 120.13456029 14.43932989 112.4487512 14.38818359 105.10913086 C14.39344055 104.16481705 14.39869751 103.22050323 14.40411377 102.24757385 C14.41722397 99.15315789 14.40860826 96.05926415 14.3984375 92.96484375 C14.40046064 90.79968671 14.40337408 88.63453033 14.40713501 86.46937561 C14.41154606 81.9429777 14.4051659 77.41675798 14.39111328 72.89038086 C14.37401204 67.10130365 14.3838765 61.31264348 14.40183067 55.5235815 C14.41269265 51.05649191 14.40921124 46.58950053 14.4014473 42.12240791 C14.3994525 39.98825595 14.40187912 37.85409493 14.40888596 35.71995354 C14.41654127 32.73355495 14.40483939 29.74782374 14.38818359 26.76147461 C14.39425629 25.88800385 14.40032898 25.01453308 14.40658569 24.11459351 C14.3421754 17.85149716 13.51163504 11.96617688 9.31640625 7.01171875 C8.73761719 6.57472656 8.15882813 6.13773438 7.5625 5.6875 C6.69818359 5.01267578 6.69818359 5.01267578 5.81640625 4.32421875 C5.21699219 3.88722656 4.61757813 3.45023438 4 3 C2.66594582 2.00096185 1.33252583 1.00107577 0 0 Z " fill="#BD80E1" transform="translate(391,127)"/>
<path d="M0 0 C1.53237305 -0.00966797 1.53237305 -0.00966797 3.09570312 -0.01953125 C4.15337891 -0.00019531 5.21105469 0.01914063 6.30078125 0.0390625 C7.33912109 0.01972656 8.37746094 0.00039062 9.44726562 -0.01953125 C17.34434419 0.02998021 24.20661512 1.72949161 30.22900391 7.10668945 C31.55078125 8.6015625 31.55078125 8.6015625 33.61328125 11.6640625 C34.21140625 12.5303125 34.80953125 13.3965625 35.42578125 14.2890625 C37.68523315 20.71066263 37.84213971 27.85391654 34.92578125 34.1015625 C30.57233567 41.42809287 24.50864987 45.03227296 16.61328125 47.6640625 C14.55183018 47.7330535 12.48826724 47.74873977 10.42578125 47.7265625 C8.79576172 47.71302734 8.79576172 47.71302734 7.1328125 47.69921875 C6.30136719 47.68761719 5.46992188 47.67601562 4.61328125 47.6640625 C4.63422852 48.24897461 4.65517578 48.83388672 4.67675781 49.43652344 C4.7600824 52.09552715 4.81199022 54.75425605 4.86328125 57.4140625 C4.91355469 58.79464844 4.91355469 58.79464844 4.96484375 60.203125 C5.0636898 67.02350279 5.0636898 67.02350279 2.78125 70.26953125 C-0.23330702 72.20862469 -1.86717798 72.31050876 -5.38671875 71.6640625 C-7.98298033 70.01646256 -8.95899492 69.29490573 -10.38671875 66.6640625 C-11.15454521 62.11841801 -11.0868002 57.60863303 -11.05078125 53.0078125 C-11.05415251 51.65929732 -11.05900772 50.3107851 -11.0652771 48.96228027 C-11.07263416 46.14106207 -11.0619827 43.32063739 -11.03857422 40.49951172 C-11.01008461 36.89099722 -11.02649521 33.28434202 -11.05643654 29.67589569 C-11.07454261 26.8927419 -11.0687369 24.11002581 -11.05579758 21.32685852 C-11.05086079 19.35212999 -11.06599207 17.37738415 -11.08145142 15.40270996 C-10.96542068 6.53336494 -10.96542068 6.53336494 -8.18188477 2.35205078 C-5.15029614 0.52128794 -3.51447629 0.02164658 0 0 Z " fill="#D7EAFD" transform="translate(315.38671875,157.3359375)"/>
<path d="M0 0 C0.80515045 -0.00524185 1.6103009 -0.0104837 2.43984985 -0.0158844 C4.14283089 -0.0223058 5.84585627 -0.02096603 7.54882812 -0.01245117 C10.14794521 -0.00395891 12.74485112 -0.03266909 15.34375 -0.06445312 C16.99999934 -0.06606576 18.65625256 -0.06548641 20.3125 -0.0625 C21.08661224 -0.07373398 21.86072449 -0.08496796 22.65829468 -0.09654236 C26.37685025 -0.04880286 28.58909033 0.31006808 31.77978516 2.28100586 C33.7890625 4.43359375 33.7890625 4.43359375 34.4140625 7.37109375 C33.53657063 11.67080393 32.45562628 12.9892179 28.7890625 15.43359375 C26.0715332 15.64111328 26.0715332 15.64111328 23.08984375 15.56640625 C22.09766846 15.54723145 21.10549316 15.52805664 20.08325195 15.50830078 C18.94762817 15.4713208 18.94762817 15.4713208 17.7890625 15.43359375 C17.79794495 16.07617126 17.80682739 16.71874878 17.815979 17.38079834 C17.90441898 24.0639965 17.96478304 30.74702865 18.00878906 37.43066406 C18.02891414 39.9255244 18.05621702 42.42033753 18.09082031 44.91503906 C18.13929707 48.49946743 18.1620227 52.0832726 18.1796875 55.66796875 C18.20033264 56.78476013 18.22097778 57.90155151 18.24224854 59.05218506 C18.24255066 60.09296204 18.24285278 61.13373901 18.24316406 62.20605469 C18.25204651 63.12094666 18.26092896 64.03583862 18.27008057 64.97845459 C17.6345751 68.22210481 16.34675273 69.40611486 13.7890625 71.43359375 C10.8515625 71.99609375 10.8515625 71.99609375 7.7890625 71.43359375 C5.12817383 69.6262207 5.12817383 69.6262207 2.7890625 66.43359375 C2.09200153 62.54823565 2.20756641 58.72534804 2.30078125 54.7890625 C2.31139336 53.10167717 2.31139336 53.10167717 2.32221985 51.38020325 C2.35017106 47.79315226 2.41291533 44.20767163 2.4765625 40.62109375 C2.50164423 38.18687153 2.52445761 35.7526248 2.54492188 33.31835938 C2.60000024 27.35623655 2.68363545 21.39502735 2.7890625 15.43359375 C2.10416748 15.45752197 1.41927246 15.4814502 0.71362305 15.50610352 C-0.18573975 15.52471436 -1.08510254 15.5433252 -2.01171875 15.5625 C-3.34843628 15.59839233 -3.34843628 15.59839233 -4.7121582 15.63500977 C-7.2109375 15.43359375 -7.2109375 15.43359375 -10.3984375 13.37109375 C-12.2109375 10.43359375 -12.2109375 10.43359375 -12.2109375 6.80859375 C-10.16233686 -0.10543339 -6.68618734 -0.02522388 0 0 Z " fill="#D7EAFD" transform="translate(253.2109375,157.56640625)"/>
<path d="M0 0 C5.15737323 2.95452758 8.62053279 7.02454733 11.125 12.375 C12.60749575 19.63922916 12.06050903 24.58438244 8.484375 31.09375 C4.79588626 36.07819424 0.02341876 38.85555889 -6.0625 39.9375 C-12.2176554 40.21106246 -17.26011137 39.12321319 -22.25 35.4375 C-26.32798507 31.64039655 -28.87134992 27.38304539 -29.5859375 21.82421875 C-29.67703349 15.52948562 -29.23905318 10.49840403 -25.25 5.4375 C-18.01823188 -1.22678531 -9.45083173 -4.26106864 0 0 Z " fill="#CB98E7" transform="translate(204.25,174.5625)"/>
<path d="M0 0 C1.77407227 -0.00290039 1.77407227 -0.00290039 3.58398438 -0.00585938 C4.81568359 0.01798828 6.04738281 0.04183594 7.31640625 0.06640625 C9.1581543 0.0499707 9.1581543 0.0499707 11.03710938 0.03320312 C21.36755626 0.11755626 21.36755626 0.11755626 25.87890625 4.62890625 C26.69259798 8.45325738 26.27781801 10.01289966 24.15625 13.2890625 C19.8297136 17.39418022 13.36281586 16.26218971 7.81640625 16.12890625 C6.63240234 16.13148437 5.44839844 16.1340625 4.22851562 16.13671875 C-5.7016509 16.02419562 -5.7016509 16.02419562 -9.12109375 12.62890625 C-10.12109375 9.25390625 -10.12109375 9.25390625 -10.12109375 5.62890625 C-7.30390116 0.9483268 -5.39715324 -0.00362902 0 0 Z " fill="#B3DAFE" transform="translate(248.12109375,25.37109375)"/>
<path d="M0 0 C1.12792969 -0.00257813 2.25585938 -0.00515625 3.41796875 -0.0078125 C13.04178294 0.10607879 13.04178294 0.10607879 17.5 3.5 C18.625 6.875 18.625 6.875 18.5 10.5 C16.85482292 13.17729288 16.20675119 14.09103392 13.5 15.5 C8.94814415 16.20247059 4.47047006 16.1057535 -0.125 16 C-1.36507812 16.00257813 -2.60515625 16.00515625 -3.8828125 16.0078125 C-12.93669492 15.90940073 -12.93669492 15.90940073 -15.31396484 14.18164062 C-17.34005393 11.30891489 -17.5 8.9669781 -17.5 5.5 C-13.25301288 -1.16004799 -7.28702801 -0.1832167 0 0 Z " fill="#B3DAFD" transform="translate(255.5,470.5)"/>
<path d="M0 0 C11.59348356 -0.27603532 11.59348356 -0.27603532 15 2 C17.34168764 5.51253146 17.49623677 6.86469356 17 11 C15.20006226 13.69990662 13.916227 15.5418865 11 17 C7.32984725 17.1377685 3.67388652 17.04271961 0 17 C0 11.39 0 5.78 0 0 Z " fill="#CB9AE8" transform="translate(320,173)"/>
<path d="M0 0 C2.4375 1.625 2.4375 1.625 4 4 C4.5625 6.9375 4.5625 6.9375 4 10 C1.70985284 13.0099077 0.20864386 14.69783903 -3.5 15.625 C-7.25999106 14.68500224 -8.7473603 13.11394311 -11 10 C-11 6.45638757 -10.65850044 4.13408409 -8.875 1.0625 C-5.81547541 -0.6712306 -3.43182475 -0.42145216 0 0 Z " fill="#B4DAFE" transform="translate(303,26)"/>
<path d="M0 0 C3.0099077 2.29014716 4.69783903 3.79135614 5.625 7.5 C4.68500224 11.25999106 3.11394311 12.7473603 0 15 C-3.85210127 15.06641554 -5.99848005 14.87229157 -8.9375 12.3125 C-10.33817538 9.26397123 -10.4842732 7.32073048 -10 4 C-7.2247536 -0.05612936 -4.80517165 -0.88258255 0 0 Z " fill="#B4DAFE" transform="translate(215,26)"/>
<path d="M0 0 C1.9453125 0.37890625 1.9453125 0.37890625 4.5078125 1.94140625 C5.9453125 4.37890625 5.9453125 4.37890625 5.8828125 7.94140625 C4.9453125 11.37890625 4.9453125 11.37890625 3.8203125 13.31640625 C0.76078791 15.05013685 -1.62286275 14.80035841 -5.0546875 14.37890625 C-7.4921875 12.75390625 -7.4921875 12.75390625 -9.0546875 10.37890625 C-9.53757613 7.06766993 -9.35087739 5.08235725 -8.0546875 2.00390625 C-5.46231192 -0.10239891 -3.28423543 -0.18784372 0 0 Z " fill="#E7F4FE" transform="translate(341.0546875,349.62109375)"/>
<path d="M0 0 C2.6923481 2.18753283 2.93936827 3.58423955 3.4375 7 C3 10 3 10 1.4375 12.375 C-1.95870843 14.63913895 -4.00099302 14.64269755 -8 14 C-10.69500656 11.58140437 -11.80636871 9.99236035 -12.5 6.4375 C-11.06550643 -0.55565616 -6.06105588 -0.76965789 0 0 Z " fill="#E7F4FE" transform="translate(177,350)"/>
<path d="M0 0 C2.4375 1.625 2.4375 1.625 4 4 C4.60605429 7.63632575 4.47161336 9.28314769 2.4375 12.375 C-0.95870843 14.63913895 -3.00099302 14.64269755 -7 14 C-9.69500656 11.58140437 -10.80636871 9.99236035 -11.5 6.4375 C-10.19781462 0.08934627 -5.87567428 -0.83938204 0 0 Z " fill="#E7F4FE" transform="translate(276,350)"/>
<path d="M0 0 C2.5 1.5625 2.5 1.5625 4 4 C3.93913078 7.46954545 3.6274029 9.91947278 1.875 12.9375 C-1.18452459 14.6712306 -3.56817525 14.42145216 -7 14 C-9.4375 12.375 -9.4375 12.375 -11 10 C-11.60605429 6.36367425 -11.47161336 4.71685231 -9.4375 1.625 C-6.06489221 -0.62340519 -3.97487617 -0.56783945 0 0 Z " fill="#E7F4FE" transform="translate(243,350)"/>
<path d="M0 0 C2 1 2 1 3 3 C3.51981506 6.56444611 3.63102777 9.73794446 2 13 C-1.26205554 14.63102777 -4.43555389 14.51981506 -8 14 C-10 13 -10 13 -11 11 C-11.51981506 7.43555389 -11.63102777 4.26205554 -10 1 C-6.73794446 -0.63102777 -3.56444611 -0.51981506 0 0 Z " fill="#E7F4FE" transform="translate(310,350)"/>
<path d="M0 0 C2 1 2 1 3 3 C3.51981506 6.56444611 3.63102777 9.73794446 2 13 C-1.26205554 14.63102777 -4.43555389 14.51981506 -8 14 C-10 13 -10 13 -11 11 C-11.51981506 7.43555389 -11.63102777 4.26205554 -10 1 C-6.73794446 -0.63102777 -3.56444611 -0.51981506 0 0 Z " fill="#E7F4FF" transform="translate(210,350)"/>
</svg>
